<svg width="220" height="62" viewBox="0 0 220 62" fill="none" xmlns="http://www.w3.org/2000/svg">
<path d="M194.323 61.9647H192.509L192.438 61.7529L189.308 53.9146L186.072 61.9647H184.258L188.526 51.3018C188.668 50.9841 188.953 50.7722 189.273 50.7722C189.593 50.7722 189.877 50.9841 190.019 51.3018L194.323 61.9647Z" fill="#163B58"/>
<path d="M86.2787 62H84.4649L84.3938 61.7881L81.2641 53.9499L78.0278 62H76.214L80.4817 51.3371C80.6239 51.0194 80.9085 50.8075 81.2285 50.8075C81.5486 50.8075 81.8331 51.0194 81.9754 51.3371L86.2787 62Z" fill="#163B58"/>
<path d="M5.22793 38.697L20.9473 7.5205L36.6667 38.697H41.8946L23.0456 1.27107C22.192 -0.42369 19.7381 -0.42369 18.8846 1.27107L0 38.697H5.22793Z" fill="#163B58"/>
<path d="M83.8248 0V4.83713H65.4737V38.697H60.2458V4.83713H41.8947V0H83.8248Z" fill="#163B58"/>
<path d="M89.0528 38.697L104.772 7.5205L120.492 38.697H125.719L106.835 1.27107C105.981 -0.42369 103.527 -0.42369 102.674 1.27107L83.7893 38.697H89.0528Z" fill="#163B58"/>
<path d="M167.614 33.8599V38.697H141.439V0H146.667V33.8599H167.614Z" fill="#163B58"/>
<path d="M183.333 38.697L199.053 7.5205L214.772 38.697H220L201.115 1.27107C200.262 -0.42369 197.808 -0.42369 196.954 1.27107L178.07 38.697H183.333Z" fill="#163B58"/>
<path d="M0 50.9841H6.82832V52.5023H1.70708V56.9863H6.36599V58.5046H1.70708V61.8235H0V50.9841Z" fill="#163B58"/>
<path d="M26.4954 50.9841H28.2024V61.7882H26.4954V50.9841Z" fill="#163B58"/>
<path d="M49.9677 54.6913V61.7881H48.3673V50.8075H48.5096L55.5513 58.0809V50.9487H57.1516V61.9294H57.0094L49.9677 54.6913Z" fill="#163B58"/>
<path d="M106.977 54.6913V61.7881H105.377V50.8075H105.519L112.561 58.0809V50.9487H114.161V61.9294H114.019L106.977 54.6913Z" fill="#163B58"/>
<path d="M133.686 56.3861C133.686 53.1731 136.14 50.8428 139.269 50.8428C141.297 50.8428 142.719 51.6196 143.644 52.9613L142.328 53.8793C141.617 52.8907 140.656 52.3963 139.234 52.3963C137.064 52.3963 135.464 54.1264 135.464 56.4214C135.464 58.7517 137.064 60.4465 139.269 60.4465C140.692 60.4465 141.723 59.9168 142.541 58.8576L143.893 59.7756C142.755 61.2585 141.332 62 139.198 62C136.104 61.9294 133.686 59.5638 133.686 56.3861Z" fill="#163B58"/>
<path d="M163.417 50.9841H165.125V61.7882H163.417V50.9841Z" fill="#163B58"/>
<path d="M213.421 50.9841H215.128V60.3052H219.964V61.8235H213.421V50.9841Z" fill="#163B58"/>
</svg>
