<?xml version="1.0" encoding="UTF-8" standalone="no"?><!DOCTYPE svg PUBLIC "-//W3C//DTD SVG 1.1//EN" "http://www.w3.org/Graphics/SVG/1.1/DTD/svg11.dtd"><svg width="100%" height="100%" viewBox="0 0 256 256" version="1.1" xmlns="http://www.w3.org/2000/svg" xmlns:xlink="http://www.w3.org/1999/xlink" xml:space="preserve" xmlns:serif="http://www.serif.com/" style="fill-rule:evenodd;clip-rule:evenodd;stroke-linejoin:round;stroke-miterlimit:2;"><path id="path5" d="M188.79,47.323c-9.908,-8.006 -21.305,-14.16 -33.675,-17.805l0,19.12l-11.455,0l0,-21.808c-5.211,-0.896 -10.537,-1.315 -15.978,-1.315c-5.384,0 -10.653,0.478 -15.807,1.315l0,21.808l-11.454,0l0,-19.179c-12.428,3.704 -23.882,9.798 -33.847,17.864l0,124.277l0.458,0l60.707,58.016l47.191,-42.959l-8.304,-8.664l-38.944,35.073l-44.843,-42.84c9.564,-1.553 18.899,-4.481 27.604,-8.723l0.859,-0.419c1.547,-0.776 3.036,-1.553 4.582,-2.389c8.533,-4.123 17.639,-6.872 27.032,-8.126l5.097,-0.657l0,-31.129c0,-11.711 -9.106,-21.211 -20.331,-21.211c-11.225,0 -20.331,9.5 -20.331,21.211l0,30.77c-0.516,0.299 -1.089,0.598 -1.604,0.896c-8.648,4.183 -17.983,6.931 -27.49,8.186l0,-105.098c3.723,-2.629 7.617,-4.959 11.683,-6.99l0,12.965l31.957,0l0,-12.189l0,-9.5c1.948,-0.119 3.895,-0.179 5.842,-0.179c1.947,0 3.894,0.06 5.842,0.179l0,21.629l31.957,0l0,-12.188l0,-0.837c4.066,2.032 7.961,4.362 11.683,6.991l0,103.126c-2.291,-0.299 -4.639,-0.419 -6.987,-0.419c-15.692,0 -30.697,6.154 -42.209,17.327l7.789,8.724c9.393,-9.082 21.591,-14.101 34.363,-14.101c4.352,0 8.705,0.598 12.829,1.733c1.947,0.537 3.894,1.195 5.784,1.971l0.057,0l0,-12.666l-0.057,-111.79Zm-69.813,71.46c0,-4.96 3.894,-9.022 8.648,-9.022c4.753,0 8.647,4.062 8.647,9.022l0,20.553c-5.898,1.135 -11.683,2.748 -17.353,4.899l0,-25.452l0.058,0Z" style="fill-rule:nonzero;"/></svg>